#!OML:ASF H:\Dans Jumps\Project 1\Capture day 1\Session 1\subject.ASF
:FULLY-SPECIFIED
:DEGREES
490
root 0.551393 17.5968 11.181 12.1812 -1.43117 -3.0459
lowerback 4.6979 0.745185 -0.6115
upperback 5.56585 0.945665 1.32128
thorax 3.06813 0.421135 1.68479
lowerneck -16.2145 0.853981 -1.32102
upperneck 31.1958 1.34617 0.927753
head 13.1398 0.554403 0.803422
rclavicle -1.40392e-014 -5.64051e-015
rhumerus -14.8633 -2.10228 -87.9578
rradius 29.6188
rwrist 25.8757
rhand -22.4239 -26.8884
rfingers 7.12502
rthumb 3.99939 -56.8306
lclavicle -1.40392e-014 -5.64051e-015
lhumerus -14.6069 -14.0705 92.8518
lradius 26.1367
lwrist 15.2421
lhand -27.7364 -7.08614
lfingers 7.12502
lthumb -1.13129 22.8906
rfemur -21.6536 -1.6892 21.9877
rtibia 26.3961
rfoot -15.2003 -0.0588782
rtoes 9.6056
lfemur -19.451 6.97682 -17.9482
ltibia 25.453
lfoot -13.0936 8.64539
ltoes -13.5389
491
root 0.550744 17.597 11.1793 12.1464 -1.44561 -3.01862
lowerback 4.65402 0.744604 -0.616516
upperback 5.56905 0.944779 1.32171
thorax 3.09595 0.420303 1.68873
lowerneck -16.2147 0.828253 -1.3707
upperneck 31.3864 1.30674 0.983063
head 13.2199 0.537258 0.829512
rclavicle -2.69602e-015 -3.23025e-015
rhumerus -14.6999 -2.07687 -88.0104
rradius 29.579
rwrist 25.913
rhand -22.4417 -26.8741
rfingers 7.12502
rthumb 3.98222 -56.8166
lclavicle -2.69602e-015 -3.23025e-015
lhumerus -14.4295 -14.1617 92.8441
lradius 26.1458
lwrist 15.2177
lhand -27.7023 -7.08403
lfingers 7.12502
lthumb -1.09836 22.8929
rfemur -21.6237 -1.68727 21.9585
rtibia 26.4008
rfoot -15.2047 -0.0567821
rtoes 9.61071
lfemur -19.4013 6.99754 -17.9725
ltibia 25.4252
lfoot -13.0961 8.61396
ltoes -13.4823
492
root 0.550067 17.5971 11.1775 12.1124 -1.46716 -2.99658
lowerback 4.61289 0.746267 -0.614153
upperback 5.57491 0.947062 1.3194
thorax 3.12505 0.421344 1.68564
lowerneck -16.2273 0.805443 -1.41762
upperneck 31.575 1.27096 1.03773
head 13.3023 0.52193 0.855638
rclavicle -2.77056e-015 -6.95746e-015
rhumerus -14.5351 -2.04434 -88.0678
rradius 29.5378
rwrist 25.9457
rhand -22.4628 -26.8658
rfingers 7.12502
rthumb 3.96189 -56.8087
lclavicle -2.77056e-015 -6.95746e-015
lhumerus -14.2576 -14.2354 92.8256
lradius 26.1591
lwrist 15.1596
lhand -27.6534 -7.08262
lfingers 7.12502
lthumb -1.05119 22.8945
rfemur -21.5918 -1.68608 21.9348
rtibia 26.3995
rfoot -15.2094 -0.0480656
rtoes 9.60057
lfemur -19.3529 7.02415 -17.9926
ltibia 25.4014
lfoot -13.1017 8.58695
ltoes -13.4319
493
root 0.549244 17.5972 11.1755 12.0787 -1.4896 -2.97873
lowerback 4.5849 0.747303 -0.608886
upperback 5.57287 0.948586 1.31865
thorax 3.13861 0.422226 1.68227
lowerneck -16.2278 0.787551 -1.45524
upperneck 31.7488 1.24466 1.07558
head 13.3763 0.509695 0.874876
rclavicle -1.82633e-015 7.23079e-015
rhumerus -14.4019 -1.97184 -88.1242
rradius 29.5177
rwrist 25.9501
rhand -22.4752 -26.8804
rfingers 7.12502
rthumb 3.94991 -56.8235
lclavicle -1.82633e-015 7.23079e-015
lhumerus -14.117 -14.2785 92.807
lradius 26.1892
lwrist 15.0801
lhand -27.6019 -7.065
lfingers 7.12502
lthumb -1.00145 22.9124
rfemur -21.5591 -1.68589 21.9164
rtibia 26.3934
rfoot -15.212 -0.0359525
rtoes 9.59814
lfemur -19.3084 7.05212 -18.0085
ltibia 25.3821
lfoot -13.1079 8.56387
ltoes -13.3843
494
root 0.548294 17.5972 11.1732 12.0459 -1.51052 -2.96923
lowerback 4.57231 0.747527 -0.595518
upperback 5.56127 0.949208 1.32053
thorax 3.13371 0.423071 1.67675
lowerneck -16.2071 0.773376 -1.49097
upperneck 31.9029 1.22498 1.10649
head 13.4375 0.49979 0.891755
rclavicle -2.62147e-015 4.42296e-015
rhumerus -14.3093 -1.86035 -88.1783
rradius 29.5287
rwrist 25.9231
rhand -22.4685 -26.925
rfingers 7.12502
rthumb 3.95637 -56.8681
lclavicle -2.62147e-015 4.42296e-015
lhumerus -14.0137 -14.2947 92.7909
lradius 26.2393
lwrist 14.9933
lhand -27.5517 -7.03964
lfingers 7.12502
lthumb -0.952925 22.938
rfemur -21.5256 -1.68509 21.908
rtibia 26.3818
rfoot -15.2126 -0.0234255
rtoes 9.60122
lfemur -19.2704 7.07685 -18.015
ltibia 25.3712
lfoot -13.113 8.54837
ltoes -13.3495
495
root 0.54733 17.5972 11.1706 12.0119 -1.52997 -2.9634
lowerback 4.57254 0.746035 -0.577479
upperback 5.54452 0.947665 1.32319
thorax 3.11638 0.423095 1.6692
lowerneck -16.1652 0.76228 -1.51708
upperneck 32.0318 1.21234 1.11935
head 13.4837 0.491853 0.900522
rclavicle -7.00716e-015 -1.11816e-015
rhumerus -14.2336 -1.72683 -88.2318
rradius 29.5437
rwrist 25.8818
rhand -22.4511 -26.9798
rfingers 7.12502
rthumb 3.97314 -56.9225
lclavicle -7.00716e-015 -1.11816e-015
lhumerus -13.9403 -14.2942 92.775
lradius 26.3072
lwrist 14.922
lhand -27.5127 -7.02387
lfingers 7.12502
lthumb -0.915266 22.9539
rfemur -21.4896 -1.69021 21.9041
rtibia 26.3661
rfoot -15.2104 -0.00361738
rtoes 9.60967
lfemur -19.2368 7.09656 -18.0178
ltibia 25.3685
lfoot -13.1113 8.54433
ltoes -13.3401
496
root 0.546259 17.5971 11.1676 11.9773 -1.54734 -2.968
lowerback 4.5797 0.743409 -0.548448
upperback 5.52912 0.944799 1.32765
thorax 3.09676 0.422812 1.65729
lowerneck -16.118 0.753293 -1.53873
upperneck 32.1422 1.20357 1.12507
head 13.5209 0.4853 0.906063
rclavicle 7.95139e-016 -2.03754e-015
rhumerus -14.166 -1.5843 -88.285
rradius 29.561
rwrist 25.8325
rhand -22.4356 -27.0226
rfingers 7.12502
rthumb 3.98815 -56.965
lclavicle 7.95139e-016 -2.03754e-015
lhumerus -13.883 -14.2903 92.7557
lradius 26.389
lwrist 14.8804
lhand -27.4858 -6.99161
lfingers 7.12502
lthumb -0.889318 22.9863
rfemur -21.4522 -1.69417 21.9123
rtibia 26.3466
rfoot -15.2033 0.01729
rtoes 9.63521
lfemur -19.2089 7.11201 -18.0087
ltibia 25.3753
lfoot -13.1053 8.55007
ltoes -13.3546
497
root 0.545166 17.597 11.1643 11.942 -1.56201 -2.97795
lowerback 4.58999 0.738595 -0.511994
upperback 5.51878 0.939153 1.33202
thorax 3.08087 0.421346 1.64119
lowerneck -16.0774 0.745907 -1.55992
upperneck 32.2394 1.1977 1.12875
head 13.5539 0.479858 0.911083
rclavicle -3.53464e-015 -1.31571e-014
rhumerus -14.0921 -1.43996 -88.3405
rradius 29.5746
rwrist 25.7869
rhand -22.4194 -27.0543
rfingers 7.12502
rthumb 4.00379 -56.9964
lclavicle -3.53464e-015 -1.31571e-014
lhumerus -13.8327 -14.2921 92.7307
lradius 26.48
lwrist 14.8799
lhand -27.4841 -6.97683
lfingers 7.12502
lthumb -0.88768 23.0011
rfemur -21.4148 -1.70133 21.9271
rtibia 26.3259
rfoot -15.1931 0.0417024
rtoes 9.66694
lfemur -19.1854 7.11867 -17.993
ltibia 25.3888
lfoot -13.0926 8.56627
ltoes -13.374
498
root 0.544021 17.597 11.1607 11.9064 -1.57569 -2.9931
lowerback 4.59628 0.733081 -0.468678
upperback 5.51821 0.932656 1.33585
thorax 3.07752 0.419571 1.62089
lowerneck -16.0476 0.739261 -1.58037
upperneck 32.326 1.19269 1.13279
head 13.5848 0.474977 0.916224
rclavicle -6.08157e-015 -6.03808e-015
rhumerus -14.0014 -1.30923 -88.3978
rradius 29.5785
rwrist 25.7521
rhand -22.4102 -27.0647
rfingers 7.12502
rthumb 4.0127 -57.0067
lclavicle -6.08157e-015 -6.03808e-015
lhumerus -13.7797 -14.3119 92.6983
lradius 26.5759
lwrist 14.9259
lhand -27.502 -6.97501
lfingers 7.12502
lthumb -0.904952 23.0028
rfemur -21.379 -1.7084 21.9482
rtibia 26.306
rfoot -15.1794 0.0665634
rtoes 9.70185
lfemur -19.1668 7.1193 -17.9706
ltibia 25.4091
lfoot -13.0776 8.58919
ltoes -13.3926
